HIERARCHY
ROOT Hips
{
	OFFSET -0.001795 -0.223333 0.028219
	CHANNELS 6 Xposition Yposition Zposition Zrotation Yrotation Xrotation 
	JOINT LeftUpLeg
	{
		OFFSET 0.069520 -0.091406 -0.006815
		CHANNELS 3 Zrotation Yrotation Xrotation
		JOINT LeftLeg
		{
			OFFSET 0.034277 -0.375199 -0.004496
			CHANNELS 3 Zrotation Yrotation Xrotation
			JOINT LeftFoot
			{
				OFFSET -0.013596 -0.397961 -0.043693
				CHANNELS 3 Zrotation Yrotation Xrotation
				JOINT LeftToe
				{
					OFFSET 0.026358 -0.055791 0.119288
					CHANNELS 3 Zrotation Yrotation Xrotation
					End Site
					{
						OFFSET 0.000000 0.000000 0.000000
					}
				}
			}
		}
	}
	JOINT RightUpLeg
	{
		OFFSET -0.067670 -0.090522 -0.004320
		CHANNELS 3 Zrotation Yrotation Xrotation
		JOINT RightLeg
		{
			OFFSET -0.038290 -0.382569 -0.008850
			CHANNELS 3 Zrotation Yrotation Xrotation
			JOINT RightFoot
			{
				OFFSET 0.015774 -0.398415 -0.042312
				CHANNELS 3 Zrotation Yrotation Xrotation
				JOINT RightToe
				{
					OFFSET -0.025372 -0.048144 0.123348
					CHANNELS 3 Zrotation Yrotation Xrotation
					End Site
					{
						OFFSET 0.000000 0.000000 0.000000
					}
				}
			}
		}
	}
	JOINT Spine
	{
		OFFSET -0.002533 0.108963 -0.026696
		CHANNELS 3 Zrotation Yrotation Xrotation
		JOINT Spine1
		{
			OFFSET 0.005487 0.135180 0.001092
			CHANNELS 3 Zrotation Yrotation Xrotation
			JOINT Spine2
			{
				OFFSET 0.001457 0.052922 0.025425
				CHANNELS 3 Zrotation Yrotation Xrotation
				JOINT Neck
				{
					OFFSET -0.002778 0.213870 -0.042857
					CHANNELS 3 Zrotation Yrotation Xrotation
					JOINT Head
					{
						OFFSET 0.005152 0.064970 0.051349
						CHANNELS 3 Zrotation Yrotation Xrotation
						End Site
						{
							OFFSET 0.000000 0.000000 0.000000
						}
					}
				}
				JOINT LeftShoulder
				{
					OFFSET 0.078845 0.121749 -0.034090
					CHANNELS 3 Zrotation Yrotation Xrotation
					JOINT LeftArm
					{
						OFFSET 0.090977 0.030469 -0.008868
						CHANNELS 3 Zrotation Yrotation Xrotation
						JOINT LeftForeArm
						{
							OFFSET 0.259612 -0.012772 -0.027456
							CHANNELS 3 Zrotation Yrotation Xrotation
							JOINT LeftHand
							{
								OFFSET 0.249234 0.008986 -0.001171
								CHANNELS 3 Zrotation Yrotation Xrotation
								End Site
								{
									OFFSET 0.000000 0.000000 0.000000
								}
							}
						}
					}
				}
				JOINT RightShoulder
				{
					OFFSET -0.081759 0.118833 -0.038615
					CHANNELS 3 Zrotation Yrotation Xrotation
					JOINT RightArm
					{
						OFFSET -0.096012 0.032551 -0.009143
						CHANNELS 3 Zrotation Yrotation Xrotation
						JOINT RightForeArm
						{
							OFFSET -0.253742 -0.013329 -0.021401
							CHANNELS 3 Zrotation Yrotation Xrotation
							JOINT RightHand
							{
								OFFSET -0.255298 0.007772 -0.005559
								CHANNELS 3 Zrotation Yrotation Xrotation
								End Site
								{
									OFFSET 0.000000 0.000000 0.000000
								}
							}
						}
					}
				}
			}
		}
	}
}
MOTION
Frames: 10
Frame Time: 0.050000
0.000000 0.840497 0.000000 -1.964831 0.023135 12.652240 10.105028 -0.331012 -46.760120 -11.417162 5.664584 54.533763 8.392969 17.123396 -7.824077 0.000000 0.000000 0.000000 -6.801819 2.252487 -46.251063 13.214026 -6.416647 54.447062 -9.129756 -23.234620 -5.094891 0.000000 0.000000 0.000000 -4.635407 0.078914 50.608427 10.665836 -1.452543 -25.988192 1.902884 7.857842 30.462937 -2.277862 3.956002 -18.900306 0.000000 0.000000 0.000000 -36.643637 -2.849099 -4.412776 -34.361458 -2.059709 -4.517908 -0.867392 -46.552923 2.123137 0.000000 0.000000 0.000000 22.085982 4.439247 4.207589 48.493751 11.029085 -4.028262 -12.764626 37.893928 -1.124027 0.000000 0.000000 0.000000 
-0.000573 0.860409 0.001837 -2.681610 -0.388449 11.852207 9.978398 -0.293808 -42.861293 -9.636571 4.316550 51.203616 7.913077 16.193295 -5.067722 0.000000 0.000000 0.000000 -5.049727 2.793805 -43.032483 13.133893 -5.764573 50.374586 -9.109853 -23.080417 -4.377518 0.000000 0.000000 0.000000 -3.578754 -0.361721 47.006993 9.100218 -1.210604 -25.640040 2.240361 6.193232 30.910331 -3.871417 4.811887 -21.878995 0.000000 0.000000 0.000000 -35.405117 0.031658 -5.464968 -35.220106 -3.276673 -4.606509 -7.363828 -47.029676 5.149963 0.000000 0.000000 0.000000 22.085044 4.258031 3.464253 50.268407 10.042365 -4.254973 -14.811318 38.544631 -1.896380 0.000000 0.000000 0.000000 
-0.000743 0.880383 0.005174 -1.881714 -1.209510 10.334151 8.953195 -0.511365 -36.887426 -9.815718 4.030468 44.130721 7.793035 15.591011 -7.862002 0.000000 0.000000 0.000000 -4.916599 2.636886 -38.492858 12.036261 -4.464512 45.804501 -9.267349 -23.278611 -2.936606 0.000000 0.000000 0.000000 -2.294956 -0.708026 42.585398 7.489803 -1.111789 -23.528935 0.448500 5.061391 29.769582 -2.645605 3.642554 -16.197686 0.000000 0.000000 0.000000 -32.599409 1.031627 -4.887223 -40.447716 -0.508722 -6.315229 -5.183611 -50.057919 4.785040 0.000000 0.000000 0.000000 23.122698 4.308008 2.933962 50.159963 8.019071 -4.824838 -11.415224 41.689214 -1.168395 0.000000 0.000000 0.000000 
-0.000598 0.904383 0.009313 -1.635617 -1.352033 8.767259 7.562405 -0.827041 -31.282464 -8.309079 2.867223 38.547538 6.612993 13.343824 -3.817560 0.000000 0.000000 0.000000 -3.810607 2.557329 -33.238229 10.599462 -3.292406 40.571773 -8.443129 -21.020353 0.818291 0.000000 0.000000 0.000000 -2.781155 -0.447993 39.493872 7.740526 -1.200672 -23.426866 0.128253 4.336375 29.409426 -3.630429 4.253852 -16.997726 0.000000 0.000000 0.000000 -33.469616 1.933031 -5.335859 -40.197428 0.307239 -6.570978 -6.063503 -49.538506 5.219913 0.000000 0.000000 0.000000 22.666605 4.676792 2.826770 49.521130 6.515022 -5.261775 -11.394341 41.250262 -1.338167 0.000000 0.000000 0.000000 
-0.000246 0.925906 0.013641 -1.146350 -1.016341 7.604712 6.010557 -1.083547 -26.130508 -7.252187 1.983842 31.936425 6.066149 12.530784 -1.349107 0.000000 0.000000 0.000000 -3.334232 2.155001 -27.235300 8.599853 -2.094537 33.751597 -7.411456 -18.619877 2.769960 0.000000 0.000000 0.000000 -2.350735 -0.578064 34.506501 6.530515 -1.001741 -22.695437 0.255761 3.078127 29.923057 -3.321874 3.847383 -16.629259 0.000000 0.000000 0.000000 -30.502257 3.163026 -5.161393 -44.700322 0.586605 -7.644325 -8.059035 -50.123478 6.550808 0.000000 0.000000 0.000000 20.414513 3.605901 1.816771 51.711379 6.490403 -5.348248 -8.873987 42.242527 -0.489825 0.000000 0.000000 0.000000 
0.000035 0.942380 0.017455 -1.012189 -0.432541 6.493841 5.536532 -1.028300 -21.487935 -6.895831 1.570288 26.744574 5.287240 11.435067 1.521340 0.000000 0.000000 0.000000 -3.018194 1.885762 -23.551866 7.257636 -1.507553 29.964070 -6.654731 -17.070643 5.505624 0.000000 0.000000 0.000000 -2.181466 -0.635470 31.515318 6.018422 -0.948318 -21.906549 0.609923 2.964033 29.440411 -2.394268 3.202492 -17.395988 0.000000 0.000000 0.000000 -27.251369 3.462231 -4.913601 -48.768078 -0.244937 -7.939156 -8.279650 -48.025789 6.381340 0.000000 0.000000 0.000000 17.386108 2.777118 1.321460 54.314772 6.184590 -5.412791 -7.142941 42.553139 0.189564 0.000000 0.000000 0.000000 
-0.000115 0.949213 0.019723 -1.148158 0.691988 6.020544 5.339625 -1.007569 -19.297802 -6.614898 1.318174 25.336659 5.085430 11.213280 2.354629 0.000000 0.000000 0.000000 -2.599834 1.744448 -21.496314 6.716675 -1.378588 27.997706 -6.044996 -15.735004 5.765524 0.000000 0.000000 0.000000 -1.678342 -0.789602 28.132438 6.029093 -0.926677 -22.066953 0.446109 2.581193 29.206559 -1.567758 2.719614 -19.188300 0.000000 0.000000 0.000000 -25.629303 4.092967 -5.120996 -51.279593 0.060462 -8.434592 -9.598492 -46.905461 6.815192 0.000000 0.000000 0.000000 16.672981 2.453500 1.184871 55.053259 6.495507 -5.246834 -6.852318 41.872356 0.329211 0.000000 0.000000 0.000000 
-0.000971 0.943319 0.020135 -0.961790 1.538688 4.794558 5.634766 -0.952876 -18.531355 -7.073718 1.437732 27.347870 4.832742 10.362192 0.815924 0.000000 0.000000 0.000000 -2.830663 1.577789 -20.266782 6.752772 -1.546843 29.802977 -5.685705 -14.770224 4.463079 0.000000 0.000000 0.000000 -1.688851 -0.789805 26.467011 5.735791 -0.785838 -23.006948 0.749060 2.440467 30.035843 -0.877816 2.477060 -22.670934 0.000000 0.000000 0.000000 -24.943683 3.390803 -4.649170 -52.649726 -1.582056 -8.029783 -7.503816 -45.175737 5.664086 0.000000 0.000000 0.000000 15.544996 3.115415 1.616178 56.052623 7.751984 -4.758720 -7.325967 40.173168 0.214333 0.000000 0.000000 0.000000 
-0.002389 0.927721 0.019502 -0.665925 2.023236 2.740259 5.911585 -0.918477 -18.647048 -7.890573 1.807863 32.300148 5.609657 11.320712 -1.770277 0.000000 0.000000 0.000000 -3.116783 1.431701 -19.244772 7.051190 -1.861240 33.220102 -5.828487 -14.725339 1.567338 0.000000 0.000000 0.000000 -1.905257 -0.742764 25.787144 5.358755 -0.709218 -22.907016 0.540257 2.434554 29.781127 -0.527197 2.413714 -24.838402 0.000000 0.000000 0.000000 -25.333148 2.033761 -3.934928 -51.811834 -4.559809 -6.644006 -4.966237 -42.087530 4.190113 0.000000 0.000000 0.000000 16.055611 4.658788 2.480471 56.343705 9.573852 -3.920352 -10.166314 37.464385 -0.692027 0.000000 0.000000 0.000000 
-0.003965 0.913032 0.019679 -0.495840 2.309739 1.100758 6.334163 -0.830784 -18.148620 -8.916997 2.265261 34.919166 6.354251 12.194260 -4.893312 0.000000 0.000000 0.000000 -3.231069 1.351932 -18.628442 7.013722 -2.030802 36.585451 -5.885646 -14.597431 -0.498031 0.000000 0.000000 0.000000 -2.264571 -0.641402 24.722006 4.850344 -0.522235 -23.963742 0.720396 1.950462 31.096791 -0.228333 2.273691 -26.659251 0.000000 0.000000 0.000000 -26.442954 0.567261 -2.994541 -50.276733 -7.380882 -5.501094 -3.086094 -40.062882 3.330415 0.000000 0.000000 0.000000 16.673931 5.706507 3.027355 56.227956 11.381234 -3.263518 -10.744245 35.722756 -0.841251 0.000000 0.000000 0.000000 
